# xmcd
#
# Track frame offsets:
#	150
#	17272
#	37786
#	54908
#	75422
#	92743
#	114529
#	136830
#	160191
#	175597
#	189591
#	204940
#	225936
#	244304
#	262860
#
# Disc length: 3666 seconds
#
# Revision: 0
# Processed by: cddbd v1.5.1PL0 Copyright (c) Steve Scherf et al.
# Submitted via: dBpowerAMP V4.0
#
DISCID=a10e500f
DTITLE=Jimmy Rodgers - Ludella
DYEAR=1900
DGENRE=Blues
TTITLE0=You're Sweet
TTITLE1=Rock This House
TTITLE2=You're Sweet
TTITLE3=Rock This House
TTITLE4=Can't Sleep For Worrying
TTITLE5=Why Did You Do It?
TTITLE6=Sloppy Drunk
TTITLE7=Gold Tailed Bird
TTITLE8=Chicago Bound
TTITLE9=Monkey Faced Woman
TTITLE10=Ludella
TTITLE11=Got My Mojo Working
TTITLE12=Why Did You Do It? (Alt.)
TTITLE13=You're Sweet (Alt.)
TTITLE14=Naptown
EXTD=
EXTT0=
EXTT1=
EXTT2=
EXTT3=
EXTT4=
EXTT5=
EXTT6=
EXTT7=
EXTT8=
EXTT9=
EXTT10=
EXTT11=
EXTT12=
EXTT13=
EXTT14=
PLAYORDER=
